<svg width="510" height="512" viewBox="0 0 510 512" fill="none" xmlns="http://www.w3.org/2000/svg">
<rect x="40.108" y="22.108" width="469.892" height="465.892" rx="51" fill="#357AE8"/>
<rect x="3.48904" y="302.442" width="60.6334" height="104.845" rx="28" fill="#357AE8"/>
<rect x="3.48904" y="105.299" width="60.6334" height="104.845" rx="28" fill="#357AE8"/>
<path d="M119.001 407.589L420.797 105.793L491.829 176.824L190.033 478.62L119.001 407.589Z" fill="url(#paint0_linear_1_9)"/>
<path d="M269.218 352.67C322.607 352.67 365.887 309.389 365.887 256C365.887 202.611 322.607 159.33 269.218 159.33C215.828 159.33 172.548 202.611 172.548 256C172.548 309.389 215.828 352.67 269.218 352.67Z" fill="#E0E0E0"/>
<path d="M315.073 210.144L408.851 116.366" stroke="#E0E0E0" stroke-width="32" stroke-linecap="round"/>
<path d="M312.182 298.964L408.851 395.634" stroke="#E0E0E0" stroke-width="32" stroke-linecap="round"/>
<path d="M222.776 302.442L129.584 395.634" stroke="#E0E0E0" stroke-width="32" stroke-linecap="round"/>
<path d="M213.771 203.886L129.584 116.366" stroke="#E0E0E0" stroke-width="32" stroke-linecap="round"/>
<path d="M269.218 298.964C292.946 298.964 312.182 279.729 312.182 256C312.182 232.271 292.946 213.036 269.218 213.036C245.489 213.036 226.253 232.271 226.253 256C226.253 279.729 245.489 298.964 269.218 298.964Z" fill="#2B6BD0"/>
<path d="M463.884 210.286C463.884 200.187 454.906 192 443.831 192C432.757 192 423.779 200.187 423.779 210.286V301.714C423.779 311.813 432.757 320 443.831 320C454.906 320 463.884 311.813 463.884 301.714V210.286Z" fill="#E0E0E0"/>
<defs>
<linearGradient id="paint0_linear_1_9" x1="266.349" y1="257.298" x2="337.381" y2="328.33" gradientUnits="userSpaceOnUse">
<stop stop-color="#1F5BBA"/>
<stop offset="1" stop-color="#357AE8"/>
</linearGradient>
</defs>
</svg>
